<?xml version="1.0" standalone="no"?>
<!DOCTYPE svg PUBLIC "-//W3C//DTD SVG 20010904//EN"
 "http://www.w3.org/TR/2001/REC-SVG-20010904/DTD/svg10.dtd">
<svg version="1.0" xmlns="http://www.w3.org/2000/svg"
 width="172.000000pt" height="172.000000pt" viewBox="0 0 172.000000 172.000000"
 preserveAspectRatio="xMidYMid meet">
<metadata>
Created by potrace 1.14, written by Peter Selinger 2001-2017
</metadata>
<g transform="translate(0.000000,172.000000) scale(0.100000,-0.100000)"
fill="#000000" stroke="none">
<path d="M320 1706 c-79 -17 -141 -51 -199 -110 -59 -61 -95 -129 -110 -210
-14 -79 -15 -947 0 -1036 27 -167 156 -298 323 -329 81 -15 961 -15 1042 0
164 30 293 159 323 323 15 81 15 962 0 1042 -15 83 -53 153 -113 212 -63 62
-132 98 -216 111 -94 16 -978 13 -1050 -3z m323 -513 c52 -27 87 -56 87 -72 0
-15 -21 -55 -80 -156 -27 -46 -21 -41 46 36 66 77 128 126 173 140 32 10 45 8
88 -11 29 -12 54 -28 56 -35 3 -7 -6 -37 -19 -66 l-25 -54 73 71 c83 80 122
104 172 104 35 0 96 -40 96 -62 0 -6 -26 -70 -59 -142 -69 -153 -91 -216 -91
-255 0 -26 3 -28 38 -27 33 1 37 -2 40 -24 6 -52 -124 -94 -185 -61 -57 30
-72 145 -35 251 11 30 23 64 27 75 11 30 -29 -18 -156 -187 -61 -82 -114 -148
-118 -148 -20 0 -69 42 -83 70 -14 29 -14 39 -2 93 8 33 28 91 44 130 26 62
27 67 8 51 -29 -27 -135 -165 -197 -257 -29 -43 -59 -81 -67 -84 -21 -8 -61
33 -75 75 -31 94 33 304 158 520 27 46 39 50 86 25z"/>
</g>
</svg>
